<svg width="1024" height="768" xmlns="http://www.w3.org/2000/svg">
 <!-- Created with Method Draw - http://github.com/duopixel/Method-Draw/ -->
 <defs>
  <linearGradient y2="0" x2="1" y1="0" x1="0" id="svg_91">
   <stop offset="0" stop-color="yellow"/>
   <stop offset="0.953125" stop-color="red"/>
  </linearGradient>
  <linearGradient y2="0.105469" x2="0.253906" y1="0.519531" x1="0.488281" id="svg_93">
   <stop offset="0.011719" stop-color="white"/>
   <stop offset="0.957031" stop-color="blue"/>
  </linearGradient>
 </defs>
 <g>
  <title>background</title>
  <rect fill="#fff" id="canvas_background" height="770" width="1026" y="-1" x="-1"/>
  <g display="none" overflow="visible" y="0" x="0" height="100%" width="100%" id="canvasGrid">
   <rect fill="url(#gridpattern)" stroke-width="0" y="0" x="0" height="100%" width="100%"/>
  </g>
 </g>
 <g>
  <title>Layer 1</title>
  <rect stroke="#000" id="svg_92" height="773.333808" width="1074.66735" y="-0.729387" x="-39.333664" fill-opacity="0.55" stroke-opacity="null" stroke-width="0" fill="url(#svg_93)"/>
  <path stroke="#000" id="svg_88" d="m862.731194,679.797824c0,-17.202962 -0.599485,-54.571846 15.357989,-38.614372c15.957474,15.957474 19.307186,-23.218619 19.307186,17.551987c0,40.770607 -0.877599,21.501184 -0.953157,21.062389" opacity="0.5" stroke-opacity="null" stroke-width="3" fill="none"/>
  <rect stroke="#000" id="svg_7" height="87.000003" width="137.539118" y="662.357828" x="61.024144" stroke-width="1.5" fill="#a5703e"/>
  <rect stroke="#000" id="svg_11" height="45.789477" width="70.000001" y="701.330411" x="94.500025" stroke-width="1.5" fill="#000000"/>
  <path stroke="#000" id="svg_14" d="m61.500027,661.272283l67.75899,-75.34653l68.74101,75.74101l-136.5,-0.39448z" stroke-width="1.5" fill="#ce9f73"/>
  <path stroke="#000" id="svg_15" d="m101.500028,564.779518l28.046762,21.536565l28.453239,-21.649321l-56.500001,0.112756z" stroke-width="1.5" fill="#ce9f73"/>
  <line stroke-linecap="null" stroke-linejoin="null" id="svg_17" y2="661.748115" x2="129.499893" y1="564.166227" x1="129.499893" stroke="#000" fill="none"/>
  <line stroke-linecap="null" stroke-linejoin="null" id="svg_18" y2="661.748115" x2="129.499893" y1="564.166227" x1="129.499893" stroke="#000" fill="none"/>
  <line stroke="#000" stroke-linecap="null" stroke-linejoin="null" id="svg_19" y2="661.748117" x2="127.499896" y1="588.166199" x1="127.499896" fill="none"/>
  <line stroke="#000" stroke-linecap="null" stroke-linejoin="null" id="svg_20" y2="661.748117" x2="124.999899" y1="592.666188" x1="124.999899" fill="none"/>
  <line stroke="#000" stroke-linecap="null" stroke-linejoin="null" id="svg_21" y2="661.748117" x2="124.999899" y1="591.0412" x1="124.999899" fill="none"/>
  <line stroke="#000" stroke-linecap="null" stroke-linejoin="null" id="svg_22" y2="661.748117" x2="132.999889" y1="590.791204" x1="132.999889" fill="none"/>
  <line stroke="#000" stroke-linecap="null" stroke-linejoin="null" id="svg_23" y2="661.248118" x2="136.499884" y1="593.791176" x1="136.499884" fill="none"/>
  <line stroke="#000" stroke-linecap="null" stroke-linejoin="null" id="svg_24" y2="661.248118" x2="121.499904" y1="595.41616" x1="121.499904" fill="none"/>
  <rect stroke="#000" id="svg_37" height="87.000003" width="137.539118" y="661.532528" x="218.65647" stroke-width="1.5" fill="#a5703e"/>
  <rect stroke="#000" id="svg_38" height="45.789477" width="70.000001" y="700.505111" x="252.132352" stroke-width="1.5" fill="#000000"/>
  <path stroke="#000" id="svg_39" d="m219.132353,660.446983l67.75899,-75.34653l68.74101,75.74101l-136.5,-0.39448z" stroke-width="1.5" fill="#ce9f73"/>
  <path stroke="#000" id="svg_40" d="m259.132353,563.954213l28.04676,21.53657l28.45324,-21.64932l-56.5,0.11275z" stroke-width="1.5" fill="#ce9f73"/>
  <line stroke-linecap="null" stroke-linejoin="null" id="svg_41" y2="660.922815" x2="287.13222" y1="563.340927" x1="287.13222" stroke="#000" fill="none"/>
  <line stroke-linecap="null" stroke-linejoin="null" id="svg_42" y2="660.922815" x2="287.13222" y1="563.340927" x1="287.13222" stroke="#000" fill="none"/>
  <line stroke="#000" stroke-linecap="null" stroke-linejoin="null" id="svg_43" y2="660.922817" x2="285.132222" y1="587.340898" x1="285.132222" fill="none"/>
  <line stroke="#000" stroke-linecap="null" stroke-linejoin="null" id="svg_44" y2="660.922817" x2="282.632226" y1="591.840888" x1="282.632226" fill="none"/>
  <line stroke="#000" stroke-linecap="null" stroke-linejoin="null" id="svg_45" y2="660.922817" x2="282.632226" y1="590.2159" x1="282.632226" fill="none"/>
  <line stroke="#000" stroke-linecap="null" stroke-linejoin="null" id="svg_46" y2="660.922817" x2="290.632215" y1="589.965904" x1="290.632215" fill="none"/>
  <line stroke="#000" stroke-linecap="null" stroke-linejoin="null" id="svg_47" y2="660.422818" x2="294.132211" y1="592.965876" x1="294.132211" fill="none"/>
  <line stroke="#000" stroke-linecap="null" stroke-linejoin="null" id="svg_48" y2="660.422818" x2="279.132231" y1="594.59086" x1="279.132231" fill="none"/>
  <rect stroke="#000" id="svg_49" height="87.000003" width="137.539118" y="663.183128" x="376.288792" stroke-width="1.5" fill="#a5703e"/>
  <rect stroke="#000" id="svg_50" height="45.789477" width="70.000001" y="702.155711" x="409.764674" stroke-width="1.5" fill="#000000"/>
  <path stroke="#000" id="svg_51" d="m376.764679,662.097584l67.75899,-75.34653l68.74101,75.74101l-136.5,-0.39448z" stroke-width="1.5" fill="#ce9f73"/>
  <path stroke="#000" id="svg_52" d="m416.764679,565.604814l28.04676,21.53657l28.45324,-21.64932l-56.5,0.11275z" stroke-width="1.5" fill="#ce9f73"/>
  <line stroke-linecap="null" stroke-linejoin="null" id="svg_53" y2="662.573415" x2="444.764542" y1="564.991527" x1="444.764542" stroke="#000" fill="none"/>
  <line stroke-linecap="null" stroke-linejoin="null" id="svg_54" y2="662.573415" x2="444.764542" y1="564.991527" x1="444.764542" stroke="#000" fill="none"/>
  <line stroke="#000" stroke-linecap="null" stroke-linejoin="null" id="svg_55" y2="662.573417" x2="442.764545" y1="588.991499" x1="442.764545" fill="none"/>
  <line stroke="#000" stroke-linecap="null" stroke-linejoin="null" id="svg_56" y2="662.573417" x2="440.264548" y1="593.491488" x1="440.264548" fill="none"/>
  <line stroke="#000" stroke-linecap="null" stroke-linejoin="null" id="svg_57" y2="662.573417" x2="440.264548" y1="591.8665" x1="440.264548" fill="none"/>
  <line stroke="#000" stroke-linecap="null" stroke-linejoin="null" id="svg_58" y2="662.573417" x2="448.264537" y1="591.616504" x1="448.264537" fill="none"/>
  <line stroke="#000" stroke-linecap="null" stroke-linejoin="null" id="svg_59" y2="662.073418" x2="451.764533" y1="594.616476" x1="451.764533" fill="none"/>
  <line stroke="#000" stroke-linecap="null" stroke-linejoin="null" id="svg_60" y2="662.073418" x2="436.764553" y1="596.24146" x1="436.764553" fill="none"/>
  <rect stroke="#000" id="svg_65" height="87.000003" width="137.539118" y="661.532528" x="218.65647" stroke-width="1.5" fill="#a5703e"/>
  <rect stroke="#000" id="svg_66" height="45.789477" width="70.000001" y="700.505111" x="252.132352" stroke-width="1.5" fill="#000000"/>
  <path stroke="#000" id="svg_67" d="m219.132357,660.446983l67.75899,-75.34653l68.74101,75.74101l-136.5,-0.39448z" stroke-width="1.5" fill="#ce9f73"/>
  <path stroke="#000" id="svg_68" d="m259.132357,563.954213l28.04676,21.53657l28.45324,-21.64932l-56.5,0.11275z" stroke-width="1.5" fill="#ce9f73"/>
  <line stroke-linecap="null" stroke-linejoin="null" id="svg_69" y2="660.922815" x2="287.13222" y1="563.340927" x1="287.13222" stroke="#000" fill="none"/>
  <line stroke-linecap="null" stroke-linejoin="null" id="svg_70" y2="660.922815" x2="287.13222" y1="563.340927" x1="287.13222" stroke="#000" fill="none"/>
  <line stroke="#000" stroke-linecap="null" stroke-linejoin="null" id="svg_71" y2="660.922817" x2="285.132222" y1="587.340898" x1="285.132222" fill="none"/>
  <line stroke="#000" stroke-linecap="null" stroke-linejoin="null" id="svg_72" y2="660.922817" x2="282.632226" y1="591.840888" x1="282.632226" fill="none"/>
  <line stroke="#000" stroke-linecap="null" stroke-linejoin="null" id="svg_73" y2="660.922817" x2="282.632226" y1="590.2159" x1="282.632226" fill="none"/>
  <line stroke="#000" stroke-linecap="null" stroke-linejoin="null" id="svg_74" y2="660.922817" x2="290.632215" y1="589.965904" x1="290.632215" fill="none"/>
  <line stroke="#000" stroke-linecap="null" stroke-linejoin="null" id="svg_75" y2="660.422818" x2="294.132211" y1="592.965876" x1="294.132211" fill="none"/>
  <line stroke="#000" stroke-linecap="null" stroke-linejoin="null" id="svg_76" y2="660.422818" x2="279.132231" y1="594.59086" x1="279.132231" fill="none"/>
  <path stroke="#000" id="svg_83" d="m668.925014,715.049485c0.80314,-0.94292 18.62721,10.48977 -2.65577,34.0628c-21.28299,23.57302 -8.1865,-111.38233 -8.25565,-112.32525c0.06915,0.94292 11.40167,-43.72529 14.21262,38.30886c2.81096,82.03415 -1.29337,51.26866 -1.36251,50.32574c8.32214,9.19592 -7.5606,-15.08675 -7.62976,-16.02966c-46.14765,-49.4004 -4.74963,-32.88073 -4.81878,-46.20315l10.50985,51.86066z" stroke-opacity="null" stroke-width="0" fill="#7f3f00"/>
  <ellipse stroke="#000" ry="20.632501" rx="25.584301" id="svg_78" cy="612.455314" cx="620.012865" stroke-opacity="null" stroke-width="0" fill="#007f00"/>
  <ellipse stroke="#000" ry="20.632501" rx="25.584301" id="svg_79" cy="599.250512" cx="644.771868" stroke-opacity="null" stroke-width="0" fill="#007f00"/>
  <ellipse stroke="#000" ry="20.632501" rx="25.584301" id="svg_80" cy="618.232415" cx="653.850169" stroke-opacity="null" stroke-width="0" fill="#007f00"/>
  <ellipse stroke="#000" ry="20.632501" rx="25.584301" id="svg_81" cy="589.346913" cx="673.657371" stroke-opacity="null" stroke-width="0" fill="#007f00"/>
  <ellipse stroke="#000" ry="20.632501" rx="25.584301" id="svg_82" cy="619.057716" cx="691.813973" stroke-opacity="null" stroke-width="0" fill="#007f00"/>
  <path stroke="#000" id="svg_84" d="m808.483381,713.676397c0.80314,-0.94292 18.62721,10.48977 -2.65577,34.0628c-21.28299,23.57302 -8.1865,-111.38233 -8.25565,-112.32525c0.06915,0.94292 11.40167,-43.72529 14.21262,38.30886c2.81096,82.03415 -1.29337,51.26866 -1.36251,50.32574c8.32214,9.19592 -7.5606,-15.08675 -7.62976,-16.02966c-46.14765,-49.4004 -4.74963,-32.88073 -4.81878,-46.20315l10.50985,51.86066z" stroke-opacity="null" stroke-width="0" fill="#7f3f00"/>
  <path stroke="#000" id="svg_85" d="m947.796102,714.501698c-0.719417,-0.94292 -16.685413,10.48977 2.378919,34.0628c19.064341,23.57302 7.333097,-111.38233 7.395038,-112.32525c-0.061941,0.94292 -10.213101,-43.72529 -12.731023,38.30886c-2.517931,82.03415 1.158542,51.26866 1.220475,50.32574c-7.454597,9.19592 6.772444,-15.08675 6.834394,-16.02966c41.33698,-49.4004 4.254504,-32.88073 4.316445,-46.20315l-9.414249,51.86066z" stroke-opacity="null" stroke-width="0" fill="#7f3f00"/>
  <rect stroke="#000" id="svg_86" height="66.849308" width="82.530012" y="679.582131" x="840.450665" stroke-opacity="null" fill="#7f7f7f"/>
  <line stroke-width="6" stroke-linecap="null" stroke-linejoin="null" id="svg_87" y2="636.666526" x2="990.655278" y1="635.015926" x1="761.22185" stroke-opacity="null" stroke="#000" fill="none"/>
  <ellipse stroke="#000" transform="rotate(-93.21133422851562 808.4125976562501,172.2432708740234) " fill-opacity="0.55" stroke-width="0" ry="71.895559" rx="71.895559" id="svg_89" cy="172.243273" cx="808.412569" fill="url(#svg_91)"/>
  <path stroke="#000" id="svg_95" d="m525.875676,49.3478c0,0 2.088502,0.557667 2.297356,0.975912c0.208818,0.418221 9.815982,-1.25471 11.904483,-2.230622c2.088502,-0.975912 6.892066,-0.867777 6.892066,-2.64889c0,-0.557667 -0.952855,-2.004095 0.835415,-1.533579c0.34777,0.09154 0.417743,0.836512 0.417743,0.836512c0,0 -0.365475,-0.688381 -0.900695,-0.496687c-0.261333,0.093629 0.378988,1.247598 0.691806,1.611998c0,0 17.483907,-1.81057 21.302794,-1.115311c1.531595,0.278798 6.683284,0.697067 6.544012,2.184148c0,0 -7.100599,1.624908 -8.214806,7.574899c-0.1392,0.743517 -9.108212,-0.946595 -15.037254,6.552466c-1.32274,1.672954 -1.67083,1.068813 -2.088537,0.975911c-0.417708,-0.092948 -8.77175,-3.57835 -15.663816,3.067087c0,0 0.34809,-0.046451 0.417708,0.139423c0.069618,0.185897 3.411242,-0.51117 3.550477,0.697113c0,0 -1.557016,-0.471408 -1.208926,-0.006643c0.348054,0.464695 0.17152,0.997529 -0.04416,0.703662c-0.041316,-0.056286 -0.905033,-0.557644 -0.626597,-0.139376c0.278472,0.418221 -1.337816,1.377843 -1.423291,1.237106c-0.340161,-0.560132 0.796766,-1.190656 -1.291736,-1.79475c-2.088538,-0.604142 -7.866753,0.836465 -10.860251,5.297732c0,0 -0.208854,0.232347 -0.626562,-0.139423c-0.417707,-0.37177 -3.341624,-5.34423 -9.39831,-5.576578c0,0 -0.278472,0.697067 -1.253086,0.836489c-0.974651,0.139423 -0.765762,2.277073 -1.253122,1.533555c-0.487326,-0.74354 -0.386632,0.143742 -0.417708,0c-0.112925,-0.522929 0.357156,-1.339185 -1.044269,-0.975911c-0.183573,0.047577 -0.278472,0.790038 -0.626525,0.418268c-0.34809,-0.37177 0.429547,-1.037525 0.916837,-1.316347c0.487326,-0.278822 -1.623931,-0.309617 -0.707983,-0.635476c0.927113,-0.329826 3.550442,0.743564 2.506209,-0.418221c-1.044269,-1.161809 -7.047089,-6.588049 -15.663816,-2.927712c-1.531594,0.650592 -1.044268,-0.139446 -1.879683,-0.836536c-0.835379,-0.697043 -6.689256,-7.33673 -14.619546,-6.552466c-1.879683,0.18592 -1.044269,-0.975888 -1.670794,-1.394133c-0.626597,-0.418245 -4.409146,-7.733639 -8.145189,-7.110133c-0.835415,0.139376 -0.236125,-2.388681 6.892066,-2.091223c1.113886,0.046451 0.417707,-0.557667 1.670829,-0.418268c1.253087,0.139446 16.708048,1.580053 18.378842,1.951823c1.67083,0.371771 3.550478,0.725256 3.550478,-1.533555c0,-0.043587 -0.274134,-0.156839 -0.835415,0.139399c-0.248,-0.148131 1.810065,-0.929437 1.461976,0.557667c-0.34809,1.487081 -1.108945,1.087356 0.208853,1.533532c1.865959,0.631768 3.344362,1.727621 6.265505,1.812424c1.601212,0.046474 9.675608,2.69243 11.486812,2.370044c1.044269,-0.185897 2.436591,-0.604141 1.879648,-0.836512c-0.556908,-0.232325 -2.436591,-1.719429 -2.297356,-2.509444c0.139236,-0.790015 0.556944,-1.394133 0,-1.672978c-0.556943,-0.278822 0.626561,-1.068837 1.67083,-0.139423c1.044233,0.929437 1.044233,1.626504 1.879648,1.672978c0.835415,0.046498 2.367008,-0.232325 2.923916,0c0,0 2.436626,-2.323547 3.759296,-1.951824c1.32274,0.371794 0.278472,0.882963 0.417707,1.254734c0.139236,0.37177 -1.392322,3.160106 -2.923881,3.067134z" stroke-opacity="null" stroke-width="0" fill="#000000"/>
  <path stroke="#000" id="svg_97" d="m635.20908,117.347841c0,0 2.088501,0.557668 2.297356,0.975912c0.208818,0.418221 9.815981,-1.25471 11.904483,-2.230621c2.088502,-0.975912 6.892066,-0.867777 6.892066,-2.64889c0,-0.557667 -0.952855,-2.004095 0.835414,-1.533579c0.34777,0.09154 0.417743,0.836512 0.417743,0.836512c0,0 -0.365475,-0.688381 -0.900694,-0.496687c-0.261334,0.093629 0.378987,1.247598 0.691806,1.611999c0,0 17.483906,-1.810571 21.302793,-1.115312c1.531595,0.278799 6.683284,0.697067 6.544012,2.184148c0,0 -7.100599,1.624908 -8.214806,7.574899c-0.1392,0.743517 -9.108212,-0.946595 -15.037253,6.552466c-1.322741,1.672954 -1.67083,1.068813 -2.088537,0.975911c-0.417708,-0.092948 -8.77175,-3.57835 -15.663816,3.067088c0,0 0.34809,-0.046451 0.417708,0.139423c0.069618,0.185896 3.411242,-0.51117 3.550477,0.697113c0,0 -1.557016,-0.471408 -1.208926,-0.006643c0.348053,0.464695 0.17152,0.99753 -0.04416,0.703662c-0.041316,-0.056285 -0.905033,-0.557643 -0.626597,-0.139375c0.278471,0.418221 -1.337816,1.377843 -1.423291,1.237106c-0.340161,-0.560132 0.796766,-1.190656 -1.291736,-1.79475c-2.088538,-0.604142 -7.866752,0.836465 -10.860251,5.297732c0,0 -0.208854,0.232348 -0.626561,-0.139422c-0.417707,-0.37177 -3.341624,-5.34423 -9.398311,-5.576578c0,0 -0.278471,0.697066 -1.253086,0.836489c-0.974651,0.139423 -0.765762,2.277073 -1.253122,1.533555c-0.487326,-0.74354 -0.386632,0.143742 -0.417708,0c-0.112925,-0.522929 0.357157,-1.339185 -1.044269,-0.975911c-0.183573,0.047577 -0.278471,0.790038 -0.626525,0.418268c-0.348089,-0.371771 0.429547,-1.037526 0.916837,-1.316347c0.487326,-0.278822 -1.623931,-0.309617 -0.707983,-0.635477c0.927113,-0.329826 3.550442,0.743564 2.506209,-0.418221c-1.044269,-1.161808 -7.047088,-6.588049 -15.663816,-2.927712c-1.531593,0.650593 -1.044268,-0.139446 -1.879683,-0.836535c-0.835379,-0.697043 -6.689256,-7.33673 -14.619546,-6.552466c-1.879683,0.18592 -1.044269,-0.975888 -1.670794,-1.394133c-0.626597,-0.418245 -4.409146,-7.733639 -8.145188,-7.110133c-0.835415,0.139375 -0.236125,-2.388681 6.892066,-2.091223c1.113886,0.046451 0.417707,-0.557667 1.670829,-0.418268c1.253087,0.139446 16.708048,1.580053 18.378842,1.951823c1.67083,0.371771 3.550478,0.725256 3.550478,-1.533555c0,-0.043587 -0.274134,-0.156839 -0.835415,0.139399c-0.248,-0.14813 1.810065,-0.929437 1.461976,0.557667c-0.348089,1.487082 -1.108944,1.087356 0.208854,1.533532c1.865959,0.631768 3.344362,1.727621 6.265504,1.812425c1.601212,0.046474 9.675609,2.69243 11.486812,2.370044c1.044269,-0.185897 2.436591,-0.604141 1.879648,-0.836512c-0.556907,-0.232325 -2.436591,-1.719429 -2.297355,-2.509444c0.139236,-0.790015 0.556943,-1.394133 0,-1.672978c-0.556944,-0.278822 0.626561,-1.068837 1.670829,-0.139423c1.044233,0.929438 1.044233,1.626504 1.879649,1.672978c0.835414,0.046498 2.367008,-0.232324 2.923916,0c0,0 2.436626,-2.323546 3.759296,-1.951823c1.322739,0.371794 0.278471,0.882963 0.417707,1.254733c0.139236,0.37177 -1.392323,3.160107 -2.923881,3.067134z" stroke-opacity="null" stroke-width="0" fill="#000000"/>
  <path stroke="#000" id="svg_98" d="m927.209264,62.681142c0,0 2.088501,0.557667 2.297355,0.975912c0.208819,0.418221 9.815982,-1.25471 11.904484,-2.230622c2.088501,-0.975912 6.892066,-0.867777 6.892066,-2.64889c0,-0.557667 -0.952855,-2.004095 0.835414,-1.533579c0.34777,0.091541 0.417743,0.836513 0.417743,0.836513c0,0 -0.365475,-0.688382 -0.900695,-0.496687c-0.261333,0.093629 0.378988,1.247598 0.691806,1.611998c0,0 17.483907,-1.81057 21.302794,-1.115311c1.531594,0.278798 6.683284,0.697066 6.544012,2.184147c0,0 -7.100599,1.624908 -8.214806,7.574899c-0.1392,0.743517 -9.108212,-0.946595 -15.037254,6.552466c-1.32274,1.672955 -1.67083,1.068814 -2.088536,0.975912c-0.417708,-0.092949 -8.77175,-3.57835 -15.663816,3.067087c0,0 0.34809,-0.04645 0.417708,0.139423c0.069618,0.185897 3.411242,-0.51117 3.550477,0.697113c0,0 -1.557016,-0.471408 -1.208926,-0.006642c0.348053,0.464695 0.17152,0.997529 -0.04416,0.703662c-0.041316,-0.056286 -0.905033,-0.557644 -0.626598,-0.139376c0.278472,0.418221 -1.337815,1.377843 -1.42329,1.237106c-0.340161,-0.560131 0.796765,-1.190655 -1.291736,-1.79475c-2.088538,-0.604141 -7.866753,0.836466 -10.860251,5.297733c0,0 -0.208854,0.232347 -0.626562,-0.139423c-0.417706,-0.37177 -3.341623,-5.34423 -9.39831,-5.576578c0,0 -0.278471,0.697067 -1.253086,0.836489c-0.974651,0.139423 -0.765762,2.277073 -1.253122,1.533556c-0.487326,-0.743541 -0.386633,0.143741 -0.417708,0c-0.112925,-0.522929 0.357156,-1.339186 -1.044269,-0.975912c-0.183573,0.047578 -0.278471,0.790038 -0.626525,0.418268c-0.348089,-0.37177 0.429547,-1.037525 0.916837,-1.316347c0.487326,-0.278822 -1.623931,-0.309617 -0.707983,-0.635476c0.927112,-0.329827 3.550442,0.743564 2.506209,-0.418221c-1.044269,-1.161809 -7.047089,-6.58805 -15.663816,-2.927712c-1.531593,0.650592 -1.044268,-0.139446 -1.879683,-0.836536c-0.835379,-0.697043 -6.689256,-7.33673 -14.619546,-6.552466c-1.879683,0.18592 -1.044269,-0.975888 -1.670794,-1.394133c-0.626597,-0.418244 -4.409146,-7.733639 -8.145189,-7.110133c-0.835414,0.139376 -0.236124,-2.388681 6.892067,-2.091223c1.113886,0.046451 0.417707,-0.557667 1.670829,-0.418268c1.253087,0.139447 16.708048,1.580054 18.378842,1.951824c1.67083,0.37177 3.550478,0.725256 3.550478,-1.533556c0,-0.043587 -0.274134,-0.156838 -0.835415,0.1394c-0.248,-0.148131 1.810065,-0.929438 1.461976,0.557667c-0.348089,1.487081 -1.108945,1.087356 0.208854,1.533532c1.865958,0.631767 3.344362,1.72762 6.265504,1.812424c1.601212,0.046474 9.675609,2.69243 11.486812,2.370044c1.044269,-0.185896 2.436591,-0.604141 1.879648,-0.836512c-0.556908,-0.232325 -2.436591,-1.719429 -2.297356,-2.509444c0.139237,-0.790015 0.556944,-1.394133 0,-1.672978c-0.556943,-0.278822 0.626561,-1.068837 1.67083,-0.139422c1.044233,0.929437 1.044233,1.626503 1.879648,1.672978c0.835415,0.046497 2.367009,-0.232325 2.923916,0c0,0 2.436627,-2.323547 3.759297,-1.951824c1.322739,0.371794 0.278471,0.882964 0.417707,1.254734c0.139236,0.37177 -1.392323,3.160106 -2.923881,3.067134z" stroke-opacity="null" stroke-width="0" fill="#000000"/>
  <path stroke="#000" id="svg_99" d="m597.875707,277.347951c0,0 2.088501,0.557667 2.297355,0.975912c0.208819,0.418221 9.815982,-1.25471 11.904484,-2.230622c2.088501,-0.975912 6.892066,-0.867777 6.892066,-2.64889c0,-0.557667 -0.952855,-2.004095 0.835414,-1.533579c0.34777,0.091541 0.417743,0.836513 0.417743,0.836513c0,0 -0.365475,-0.688382 -0.900695,-0.496687c-0.261333,0.093629 0.378988,1.247598 0.691806,1.611998c0,0 17.483907,-1.81057 21.302794,-1.115311c1.531594,0.278798 6.683284,0.697066 6.544012,2.184147c0,0 -7.100599,1.624908 -8.214806,7.574899c-0.1392,0.743517 -9.108212,-0.946595 -15.037254,6.552466c-1.32274,1.672955 -1.67083,1.068814 -2.088536,0.975912c-0.417708,-0.092949 -8.77175,-3.57835 -15.663816,3.067087c0,0 0.34809,-0.04645 0.417708,0.139423c0.069618,0.185897 3.411242,-0.51117 3.550477,0.697113c0,0 -1.557016,-0.471408 -1.208926,-0.006642c0.348053,0.464695 0.17152,0.997529 -0.04416,0.703662c-0.041316,-0.056286 -0.905033,-0.557644 -0.626598,-0.139376c0.278472,0.418221 -1.337815,1.377843 -1.42329,1.237106c-0.340161,-0.560131 0.796765,-1.190655 -1.291736,-1.79475c-2.088538,-0.604141 -7.866753,0.836466 -10.860251,5.297733c0,0 -0.208854,0.232347 -0.626562,-0.139423c-0.417706,-0.37177 -3.341623,-5.34423 -9.39831,-5.576578c0,0 -0.278471,0.697067 -1.253086,0.836489c-0.974651,0.139423 -0.765762,2.277073 -1.253122,1.533556c-0.487326,-0.743541 -0.386633,0.143741 -0.417708,0c-0.112925,-0.522929 0.357156,-1.339186 -1.044269,-0.975912c-0.183573,0.047578 -0.278471,0.790038 -0.626525,0.418268c-0.348089,-0.37177 0.429547,-1.037525 0.916837,-1.316347c0.487326,-0.278822 -1.623931,-0.309617 -0.707983,-0.635476c0.927112,-0.329827 3.550442,0.743564 2.506209,-0.418221c-1.044269,-1.161809 -7.047089,-6.58805 -15.663816,-2.927712c-1.531593,0.650592 -1.044268,-0.139446 -1.879683,-0.836536c-0.835379,-0.697043 -6.689256,-7.33673 -14.619546,-6.552466c-1.879683,0.18592 -1.044269,-0.975888 -1.670794,-1.394133c-0.626597,-0.418244 -4.409146,-7.733639 -8.145189,-7.110133c-0.835414,0.139376 -0.236124,-2.388681 6.892067,-2.091223c1.113886,0.046451 0.417707,-0.557667 1.670829,-0.418268c1.253087,0.139447 16.708048,1.580054 18.378842,1.951824c1.67083,0.37177 3.550478,0.725256 3.550478,-1.533556c0,-0.043587 -0.274134,-0.156838 -0.835415,0.1394c-0.248,-0.148131 1.810065,-0.929438 1.461976,0.557667c-0.348089,1.487081 -1.108945,1.087356 0.208854,1.533532c1.865958,0.631767 3.344362,1.72762 6.265504,1.812424c1.601212,0.046474 9.675609,2.69243 11.486812,2.370044c1.044269,-0.185896 2.436591,-0.604141 1.879648,-0.836512c-0.556908,-0.232325 -2.436591,-1.719429 -2.297356,-2.509444c0.139237,-0.790015 0.556944,-1.394133 0,-1.672978c-0.556943,-0.278822 0.626561,-1.068837 1.67083,-0.139422c1.044233,0.929437 1.044233,1.626503 1.879648,1.672978c0.835415,0.046497 2.367009,-0.232325 2.923916,0c0,0 2.436627,-2.323547 3.759297,-1.951824c1.322739,0.371794 0.278471,0.882964 0.417707,1.254734c0.139236,0.37177 -1.392323,3.160106 -2.923881,3.067134z" stroke-opacity="null" stroke-width="0" fill="#000000"/>
  <path stroke="#000" id="svg_101" d="m493.87566,162.681204c0,0 2.088501,0.557668 2.297356,0.975912c0.208818,0.418221 9.815981,-1.25471 11.904483,-2.230621c2.088502,-0.975912 6.892066,-0.867777 6.892066,-2.64889c0,-0.557667 -0.952855,-2.004095 0.835414,-1.533579c0.34777,0.09154 0.417743,0.836512 0.417743,0.836512c0,0 -0.365475,-0.688381 -0.900694,-0.496687c-0.261334,0.093629 0.378987,1.247598 0.691806,1.611999c0,0 17.483906,-1.810571 21.302793,-1.115312c1.531595,0.278799 6.683284,0.697067 6.544012,2.184148c0,0 -7.100599,1.624908 -8.214806,7.574899c-0.1392,0.743517 -9.108212,-0.946595 -15.037253,6.552466c-1.322741,1.672954 -1.67083,1.068813 -2.088537,0.975911c-0.417708,-0.092948 -8.77175,-3.57835 -15.663816,3.067088c0,0 0.34809,-0.046451 0.417708,0.139423c0.069618,0.185896 3.411242,-0.51117 3.550477,0.697113c0,0 -1.557016,-0.471408 -1.208926,-0.006643c0.348053,0.464695 0.17152,0.99753 -0.04416,0.703662c-0.041316,-0.056285 -0.905033,-0.557643 -0.626597,-0.139375c0.278471,0.418221 -1.337816,1.377843 -1.423291,1.237106c-0.340161,-0.560132 0.796766,-1.190656 -1.291736,-1.79475c-2.088538,-0.604142 -7.866752,0.836465 -10.860251,5.297732c0,0 -0.208854,0.232348 -0.626561,-0.139422c-0.417707,-0.37177 -3.341624,-5.34423 -9.398311,-5.576578c0,0 -0.278471,0.697066 -1.253086,0.836489c-0.974651,0.139423 -0.765762,2.277073 -1.253122,1.533555c-0.487326,-0.74354 -0.386632,0.143742 -0.417708,0c-0.112925,-0.522929 0.357157,-1.339185 -1.044269,-0.975911c-0.183573,0.047577 -0.278471,0.790038 -0.626525,0.418268c-0.348089,-0.371771 0.429547,-1.037526 0.916837,-1.316347c0.487326,-0.278822 -1.623931,-0.309617 -0.707983,-0.635477c0.927113,-0.329826 3.550442,0.743564 2.506209,-0.418221c-1.044269,-1.161808 -7.047088,-6.588049 -15.663816,-2.927712c-1.531593,0.650593 -1.044268,-0.139446 -1.879683,-0.836535c-0.835379,-0.697043 -6.689256,-7.33673 -14.619546,-6.552466c-1.879683,0.18592 -1.044269,-0.975888 -1.670794,-1.394133c-0.626597,-0.418245 -4.409146,-7.733639 -8.145188,-7.110133c-0.835415,0.139375 -0.236125,-2.388681 6.892066,-2.091223c1.113886,0.046451 0.417707,-0.557667 1.670829,-0.418268c1.253087,0.139446 16.708048,1.580053 18.378842,1.951823c1.67083,0.371771 3.550478,0.725256 3.550478,-1.533555c0,-0.043587 -0.274134,-0.156839 -0.835415,0.139399c-0.248,-0.14813 1.810065,-0.929437 1.461976,0.557667c-0.348089,1.487082 -1.108944,1.087356 0.208854,1.533532c1.865959,0.631768 3.344362,1.727621 6.265504,1.812425c1.601212,0.046474 9.675609,2.69243 11.486812,2.370044c1.044269,-0.185897 2.436591,-0.604141 1.879648,-0.836512c-0.556907,-0.232325 -2.436591,-1.719429 -2.297355,-2.509444c0.139236,-0.790015 0.556943,-1.394133 0,-1.672978c-0.556944,-0.278822 0.626561,-1.068837 1.670829,-0.139423c1.044233,0.929438 1.044233,1.626504 1.879649,1.672978c0.835414,0.046498 2.367008,-0.232324 2.923916,0c0,0 2.436626,-2.323546 3.759296,-1.951823c1.322739,0.371794 0.278471,0.882963 0.417707,1.254733c0.139236,0.37177 -1.392323,3.160107 -2.923881,3.067134z" stroke-opacity="null" stroke-width="0" fill="#000000"/>
  <path stroke="#000" id="svg_102" d="m353.875568,70.681143c0,0 2.088501,0.557668 2.297356,0.975912c0.208818,0.418221 9.815981,-1.25471 11.904483,-2.230621c2.088502,-0.975912 6.892066,-0.867777 6.892066,-2.64889c0,-0.557667 -0.952855,-2.004095 0.835414,-1.533579c0.34777,0.09154 0.417743,0.836512 0.417743,0.836512c0,0 -0.365475,-0.688381 -0.900694,-0.496687c-0.261334,0.093629 0.378987,1.247598 0.691806,1.611999c0,0 17.483906,-1.810571 21.302793,-1.115312c1.531595,0.278799 6.683284,0.697067 6.544012,2.184148c0,0 -7.100599,1.624908 -8.214806,7.574899c-0.1392,0.743517 -9.108212,-0.946595 -15.037253,6.552466c-1.322741,1.672954 -1.67083,1.068813 -2.088537,0.975911c-0.417708,-0.092948 -8.77175,-3.57835 -15.663816,3.067088c0,0 0.34809,-0.046451 0.417708,0.139423c0.069618,0.185896 3.411242,-0.51117 3.550477,0.697113c0,0 -1.557016,-0.471408 -1.208926,-0.006643c0.348053,0.464695 0.17152,0.99753 -0.04416,0.703662c-0.041316,-0.056285 -0.905033,-0.557643 -0.626597,-0.139375c0.278471,0.418221 -1.337816,1.377843 -1.423291,1.237106c-0.340161,-0.560132 0.796766,-1.190656 -1.291736,-1.79475c-2.088538,-0.604142 -7.866752,0.836465 -10.860251,5.297732c0,0 -0.208854,0.232348 -0.626561,-0.139422c-0.417707,-0.37177 -3.341624,-5.34423 -9.398311,-5.576578c0,0 -0.278471,0.697066 -1.253086,0.836489c-0.974651,0.139423 -0.765762,2.277073 -1.253122,1.533555c-0.487326,-0.74354 -0.386632,0.143742 -0.417708,0c-0.112925,-0.522929 0.357157,-1.339185 -1.044269,-0.975911c-0.183573,0.047577 -0.278471,0.790038 -0.626525,0.418268c-0.348089,-0.371771 0.429547,-1.037526 0.916837,-1.316347c0.487326,-0.278822 -1.623931,-0.309617 -0.707983,-0.635477c0.927113,-0.329826 3.550442,0.743564 2.506209,-0.418221c-1.044269,-1.161808 -7.047088,-6.588049 -15.663816,-2.927712c-1.531593,0.650593 -1.044268,-0.139446 -1.879683,-0.836535c-0.835379,-0.697043 -6.689256,-7.33673 -14.619546,-6.552466c-1.879683,0.18592 -1.044269,-0.975888 -1.670794,-1.394133c-0.626597,-0.418245 -4.409146,-7.733639 -8.145188,-7.110133c-0.835415,0.139375 -0.236125,-2.388681 6.892066,-2.091223c1.113886,0.046451 0.417707,-0.557667 1.670829,-0.418268c1.253087,0.139446 16.708048,1.580053 18.378842,1.951823c1.67083,0.371771 3.550478,0.725256 3.550478,-1.533555c0,-0.043587 -0.274134,-0.156839 -0.835415,0.139399c-0.248,-0.14813 1.810065,-0.929437 1.461976,0.557667c-0.348089,1.487082 -1.108944,1.087356 0.208854,1.533532c1.865959,0.631768 3.344362,1.727621 6.265504,1.812425c1.601212,0.046474 9.675609,2.69243 11.486812,2.370044c1.044269,-0.185897 2.436591,-0.604141 1.879648,-0.836512c-0.556907,-0.232325 -2.436591,-1.719429 -2.297355,-2.509444c0.139236,-0.790015 0.556943,-1.394133 0,-1.672978c-0.556944,-0.278822 0.626561,-1.068837 1.670829,-0.139423c1.044233,0.929438 1.044233,1.626504 1.879649,1.672978c0.835414,0.046498 2.367008,-0.232324 2.923916,0c0,0 2.436626,-2.323546 3.759296,-1.951823c1.322739,0.371794 0.278471,0.882963 0.417707,1.254733c0.139236,0.37177 -1.392323,3.160107 -2.923881,3.067134z" stroke-opacity="null" stroke-width="0" fill="#000000"/>
 </g>
</svg>